<svg width="512" height="250" viewBox="0 0 512 250" xmlns="http://www.w3.org/2000/svg">
    <path d="M389.689 159.289l107.52 6.827L512 113.778l-15.929-30.151v27.306l-10.24-3.982-4.551-23.324-5.689 17.066-24.462-11.377-26.169-36.41 13.084-26.168-25.6 5.12 1.138-10.81 20.48-3.412L417.564 0l-31.857 21.049L362.95 0 171.236 10.24 89.884 51.769l-56.32 54.613L0 197.404l11.378 13.085-1.707-17.636 38.116-44.942 19.342 73.387 19.342 25.6h23.893l-17.635-15.93 27.307-52.337-7.396 21.618 25.031 38.115 25.031-.568-17.635-18.774 16.497-34.702 65.992 9.102 55.182 2.276 1.706 54.613 31.29-1.138-10.24-14.222 18.773-27.875 1.137 31.857 32.996-1.706-11.947-14.223z" fill-rule="nonzero" fill="#000"/>
</svg>
