<svg width="256" height="256" viewBox="0 0 256 256" xmlns="http://www.w3.org/2000/svg"><path d="M64.096 0S42.612 3.806 23.412 22.891C4.104 42.085 0 64.095 0 64.095l24.18 4.197s2.38-14.194 16.504-28.232c14.23-14.147 27.25-16.024 27.25-16.024L64.096 0zm72.54 13.353c-3.884 0-7.78 1.63-10.747 4.578L111.304 32.43c8.045 1.526 15.515 6.236 20.342 13.353l3.838 5.342 11.898-11.827c5.932-5.897 5.932-15.469 0-21.366-2.966-2.948-6.862-4.578-10.746-4.578zm42.986 14.498c-3.884 0-7.78 1.248-10.746 4.197l-27.635 27.47 12.666 18.694c1.78 2.6 2.828 5.512 3.454 8.393l33.008-33.192c5.932-5.897 5.932-15.469 0-21.365-2.966-2.949-6.863-4.197-10.747-4.197zm-73.307 14.116c-2.249-.066-4.667.095-6.909.763l-32.623 9.92c-10.194 3.04-15.359 12.23-17.656 22.51-2.296 10.28-14.584 62.187-14.584 62.187L.768 170.921 86.74 256l30.704-30.522-30.704-26.324 34.542 17.168c13.609 6.763 29.925 4.209 40.684-6.486l49.895-49.598c-9.862 9.804-25.82 9.804-35.694 0-7.7-7.654-9.325-19.31-4.99-28.614-6.005-.33-11.922-2.325-16.503-6.867-7.689-7.643-6.141-15.26-6.141-15.26s-15.703 11.478-31.473-4.197l-14.2-13.735s22.34 37.316 12.281 64.858c3.255-24.734-27.634-69.818-27.634-69.818l21.493-4.197 14.585 17.55c4.544 5.384 12.65 6.367 18.423 2.29 6.006-4.25 7.581-12.64 3.454-18.695l-22.26-32.43c-3.925-5.777-10.142-8.958-16.888-9.156zm98.639 17.55c-3.885 0-7.781 1.248-10.747 4.197l-32.24 32.43c-5.932 5.896-5.932 15.467 0 21.364s15.561 5.897 21.493 0L215.7 85.08c5.932-5.897 5.932-15.468 0-21.365-2.966-2.949-6.862-4.197-10.746-4.197zm10.362 46.546c-3.884 0-7.396 1.248-10.362 4.196l-21.494 21.365c-5.932 5.897-5.932 15.469 0 21.366 5.92 5.884 15.561 5.884 21.494 0l21.109-21.366c5.932-5.896 5.932-15.468 0-21.365-2.966-2.948-6.863-4.196-10.747-4.196zm17.272 69.055s-7.468 20.787-22.261 35.481c-14.687 14.599-35.694 21.747-35.694 21.747l7.292 23.272s25.961-7.493 46.057-27.469c20.014-19.88 28.018-45.4 28.018-45.4l-23.412-7.631z" fill="#FFF" fill-rule="evenodd"/></svg>